<mxfile host="app.diagrams.net" agent="Mozilla/5.0 (X11; Ubuntu; Linux x86_64; rv:132.0) Gecko/20100101 Firefox/132.0" version="25.0.3">
  <diagram name="Seite-1" id="v4zKv522e2VMaitY0-yY">
    <mxGraphModel dx="1368" dy="743" grid="1" gridSize="10" guides="1" tooltips="1" connect="1" arrows="1" fold="1" page="1" pageScale="1" pageWidth="1169" pageHeight="826" math="0" shadow="0">
      <root>
        <mxCell id="0" />
        <mxCell id="1" parent="0" />
        <mxCell id="ytMAjWAJxm4MJN-wQsIq-2" value="" style="rounded=1;whiteSpace=wrap;html=1;" vertex="1" parent="1">
          <mxGeometry x="520" y="40" width="400" height="410" as="geometry" />
        </mxCell>
        <mxCell id="ytMAjWAJxm4MJN-wQsIq-3" value="Anwendung" style="rounded=1;whiteSpace=wrap;html=1;" vertex="1" parent="1">
          <mxGeometry x="540" y="70" width="360" height="60" as="geometry" />
        </mxCell>
        <mxCell id="ytMAjWAJxm4MJN-wQsIq-5" value="RTOS" style="rounded=1;whiteSpace=wrap;html=1;" vertex="1" parent="1">
          <mxGeometry x="540" y="190" width="180" height="60" as="geometry" />
        </mxCell>
        <mxCell id="ytMAjWAJxm4MJN-wQsIq-6" value="&lt;div&gt;Hardware-Abstraktionsschicht&lt;/div&gt;&lt;div&gt;API&lt;br&gt; &lt;/div&gt;" style="rounded=1;whiteSpace=wrap;html=1;" vertex="1" parent="1">
          <mxGeometry x="540" y="250" width="180" height="60" as="geometry" />
        </mxCell>
        <mxCell id="ytMAjWAJxm4MJN-wQsIq-7" value="&lt;h1 style=&quot;margin-top: 0px;&quot;&gt;Hardware-Abstraktionsschicht &lt;/h1&gt;&lt;p&gt;HAL stellt APIs bereit, die hardwareabh채ngig sind, aber eine standardisierte Schnittstelle f체r die Anwendung bieten.&lt;/p&gt;&lt;p&gt;HAL 체bersetzt diese Aufrufe in spezifische Befehle f체r die zugrunde liegende Hardware.&lt;/p&gt;" style="text;html=1;whiteSpace=wrap;overflow=hidden;rounded=0;" vertex="1" parent="1">
          <mxGeometry x="550" y="480" width="340" height="160" as="geometry" />
        </mxCell>
        <mxCell id="ytMAjWAJxm4MJN-wQsIq-8" value="Treiber" style="rounded=1;whiteSpace=wrap;html=1;" vertex="1" parent="1">
          <mxGeometry x="540" y="310" width="180" height="60" as="geometry" />
        </mxCell>
        <mxCell id="ytMAjWAJxm4MJN-wQsIq-1" value="Hardware" style="rounded=1;whiteSpace=wrap;html=1;" vertex="1" parent="1">
          <mxGeometry x="540" y="370" width="360" height="50" as="geometry" />
        </mxCell>
        <mxCell id="ytMAjWAJxm4MJN-wQsIq-9" value="" style="rounded=1;whiteSpace=wrap;html=1;" vertex="1" parent="1">
          <mxGeometry x="90" y="190" width="380" height="210" as="geometry" />
        </mxCell>
        <mxCell id="ytMAjWAJxm4MJN-wQsIq-10" value="Hardware" style="rounded=1;whiteSpace=wrap;html=1;" vertex="1" parent="1">
          <mxGeometry x="100" y="330" width="360" height="50" as="geometry" />
        </mxCell>
        <mxCell id="ytMAjWAJxm4MJN-wQsIq-11" value="Treiber" style="rounded=1;whiteSpace=wrap;html=1;" vertex="1" parent="1">
          <mxGeometry x="100" y="270" width="180" height="60" as="geometry" />
        </mxCell>
        <mxCell id="ytMAjWAJxm4MJN-wQsIq-12" value="Anwendung" style="rounded=1;whiteSpace=wrap;html=1;" vertex="1" parent="1">
          <mxGeometry x="100" y="210" width="360" height="60" as="geometry" />
        </mxCell>
        <mxCell id="ytMAjWAJxm4MJN-wQsIq-13" value="Text" style="text;html=1;align=center;verticalAlign=middle;whiteSpace=wrap;rounded=0;" vertex="1" parent="1">
          <mxGeometry x="550" y="460" width="60" height="30" as="geometry" />
        </mxCell>
        <mxCell id="ytMAjWAJxm4MJN-wQsIq-14" value="Text" style="text;html=1;align=center;verticalAlign=middle;whiteSpace=wrap;rounded=0;" vertex="1" parent="1">
          <mxGeometry x="550" y="460" width="60" height="30" as="geometry" />
        </mxCell>
        <mxCell id="ytMAjWAJxm4MJN-wQsIq-15" value="Bare Metal" style="text;html=1;align=center;verticalAlign=middle;whiteSpace=wrap;rounded=0;" vertex="1" parent="1">
          <mxGeometry x="130" y="145" width="60" height="30" as="geometry" />
        </mxCell>
        <mxCell id="ytMAjWAJxm4MJN-wQsIq-16" value="Middleware" style="rounded=1;whiteSpace=wrap;html=1;" vertex="1" parent="1">
          <mxGeometry x="540" y="130" width="180" height="60" as="geometry" />
        </mxCell>
      </root>
    </mxGraphModel>
  </diagram>
</mxfile>
